<?xml version="1.0" encoding="UTF-8"?>
<svg xmlns="http://www.w3.org/2000/svg" width="1024" height="1024" viewBox="0 0 1024 1024">
<defs>
<linearGradient id="bg" x1="0" y1="0" x2="0" y2="1"><stop stop-color="#0A0E1E"/><stop offset="1" stop-color="#080B18"/></linearGradient>
<linearGradient id="star" x1=".18" y1=".08" x2=".82" y2=".92"><stop stop-color="#FFFDF0"/><stop offset=".27" stop-color="#FFD95A"/><stop offset=".58" stop-color="#FF9D24"/><stop offset=".82" stop-color="#F04A42"/><stop offset="1" stop-color="#7A3CFF"/></linearGradient>
<linearGradient id="orbit" x1="0" y1="1" x2="1" y2="0"><stop stop-color="#3948FF"/><stop offset=".3" stop-color="#FF7040"/><stop offset=".56" stop-color="#FFC43D"/><stop offset="1" stop-color="#FFE58A"/></linearGradient>
<linearGradient id="orbitBack" x1="0" y1="1" x2="1" y2="0"><stop stop-color="#293BE0"/><stop offset=".5" stop-color="#E85B48"/><stop offset="1" stop-color="#FFB63F"/></linearGradient>
<clipPath id="clip"><rect x="48" y="48" width="928" height="928" rx="168"/></clipPath>
</defs>
<rect width="1024" height="1024" rx="192" fill="url(#bg)"/>
<g clip-path="url(#clip)">
<path d="M145 760 C250 630 430 555 650 510 C815 477 900 505 900 585 C900 670 785 742 635 792" fill="none" stroke="url(#orbitBack)" stroke-width="54" stroke-linecap="round"/>
<path d="M512 181 C528 181 541 195 548 216 L590 360 C596 380 609 394 629 403 L786 472 C816 485 816 526 786 539 L629 608 C609 617 596 632 590 652 L548 808 C540 837 500 837 492 808 L450 652 C444 632 431 617 411 608 L254 539 C224 526 224 485 254 472 L411 403 C431 394 444 380 450 360 L492 216 C498 195 504 181 512 181Z" fill="url(#star)"/>
<path d="M512 181 L590 360 C596 380 609 394 629 403 L512 512Z" fill="#FFF8D8" opacity=".34"/>
<path d="M512 512 L786 472 C816 485 816 526 786 539 L629 608Z" fill="#FF5A32" opacity=".30"/>
<path d="M512 512 L492 808 C500 837 540 837 548 808 L590 652Z" fill="#B65BFF" opacity=".30"/>
<path d="M512 512 L254 539 C224 526 224 485 254 472 L411 403Z" fill="#FFE8B0" opacity=".20"/>
<path d="M123 770 C330 795 625 738 805 625 C900 565 916 488 865 430" fill="none" stroke="url(#orbit)" stroke-width="54" stroke-linecap="round"/>
</g>
</svg>