<svg xmlns="http://www.w3.org/2000/svg" viewBox="0 0 1600 720" preserveAspectRatio="xMidYMid slice">
  <defs>
    <linearGradient id="sky" x1="0" y1="0" x2="0" y2="1">
      <stop offset="0" stop-color="#182d63"/>
      <stop offset=".38" stop-color="#4d4c8a"/>
      <stop offset=".68" stop-color="#d67891"/>
      <stop offset="1" stop-color="#f0bdab"/>
    </linearGradient>
    <radialGradient id="sunGlow" cx=".74" cy=".33" r=".28">
      <stop offset="0" stop-color="#ffe7b7" stop-opacity=".9"/>
      <stop offset=".32" stop-color="#ffd8c1" stop-opacity=".38"/>
      <stop offset="1" stop-color="#ffd8c1" stop-opacity="0"/>
    </radialGradient>
    <linearGradient id="farMountains" x1="0" y1="0" x2="0" y2="1">
      <stop offset="0" stop-color="#7c7ca5"/>
      <stop offset="1" stop-color="#3b466f"/>
    </linearGradient>
    <linearGradient id="midMountains" x1="0" y1="0" x2="0" y2="1">
      <stop offset="0" stop-color="#3e456e"/>
      <stop offset="1" stop-color="#171f3d"/>
    </linearGradient>
    <linearGradient id="frontMountains" x1="0" y1="0" x2="0" y2="1">
      <stop offset="0" stop-color="#16233e"/>
      <stop offset="1" stop-color="#07111f"/>
    </linearGradient>
    <linearGradient id="lake" x1="0" y1="0" x2="0" y2="1">
      <stop offset="0" stop-color="#18355d"/>
      <stop offset="1" stop-color="#061321"/>
    </linearGradient>
    <filter id="atmo" x="-15%" y="-15%" width="130%" height="130%">
      <feGaussianBlur stdDeviation="14"/>
    </filter>
    <filter id="grain" x="-10%" y="-10%" width="120%" height="120%">
      <feTurbulence type="fractalNoise" baseFrequency=".72" numOctaves="2" seed="4" result="noise"/>
      <feColorMatrix in="noise" type="saturate" values="0"/>
      <feComponentTransfer>
        <feFuncA type="table" tableValues="0 .055"/>
      </feComponentTransfer>
    </filter>
  </defs>

  <rect width="1600" height="720" fill="url(#sky)"/>
  <rect width="1600" height="720" fill="url(#sunGlow)"/>

  <g opacity=".26" filter="url(#atmo)">
    <path d="M0 260 150 170 300 235 445 90 610 210 770 72 935 218 1110 128 1265 238 1450 125 1600 208V430H0Z" fill="#a8afd4"/>
  </g>

  <g opacity=".84">
    <path d="M0 355 160 248 300 330 470 155 625 315 780 128 955 302 1110 182 1285 306 1450 174 1600 290V500H0Z" fill="url(#farMountains)"/>
    <path d="m470 155 38 60 50 42-64-23-46 18Z" fill="#d8d5df" opacity=".6"/>
    <path d="m780 128 45 70 48 44-68-28-50 16Z" fill="#e2dfe5" opacity=".55"/>
    <path d="m1450 174 42 66 45 40-62-23-46 16Z" fill="#e6e1e6" opacity=".48"/>
  </g>

  <path d="M0 430 190 294 360 408 540 225 720 394 900 207 1060 386 1240 236 1400 395 1600 230V545H0Z" fill="url(#midMountains)"/>
  <path d="M0 500 165 358 335 492 505 278 670 470 845 300 1015 466 1190 318 1340 470 1500 312 1600 387V585H0Z" fill="url(#frontMountains)"/>

  <rect y="500" width="1600" height="220" fill="url(#lake)"/>

  <g opacity=".22" stroke="#f3b8bb" stroke-linecap="round">
    <path d="M860 542h270" stroke-width="7"/>
    <path d="M895 558h210" stroke-width="5"/>
    <path d="M918 576h165" stroke-width="4"/>
    <path d="M936 594h130" stroke-width="3"/>
  </g>

  <g opacity=".14" stroke="#9ab8dd" stroke-linecap="round">
    <path d="M180 548h360" stroke-width="3"/>
    <path d="M110 574h460" stroke-width="2"/>
    <path d="M1040 620h420" stroke-width="3"/>
    <path d="M1110 646h340" stroke-width="2"/>
  </g>

  <g fill="#04101e" opacity=".96">
    <path d="M0 642 86 616 128 628 188 596 258 625 320 603 388 640 460 615 535 651V720H0Z"/>
    <path d="M1085 650 1150 615 1220 636 1285 607 1360 640 1425 598 1495 630 1600 590V720H1085Z"/>
  </g>

  <g fill="#e7d5cc" opacity=".7">
    <circle cx="1208" cy="186" r="34"/>
    <circle cx="260" cy="134" r="2"/>
    <circle cx="352" cy="92" r="2"/>
    <circle cx="532" cy="126" r="2"/>
    <circle cx="642" cy="73" r="2"/>
    <circle cx="980" cy="104" r="2"/>
    <circle cx="1314" cy="110" r="2"/>
  </g>

  <rect width="1600" height="720" filter="url(#grain)" opacity=".75"/>
</svg>